<svg width="15" height="36" viewBox="0 0 15 36" fill="none" xmlns="http://www.w3.org/2000/svg">
<path d="M7 24.1289C7.84726 20.7547 8.74291 19.7753 12 21.6289C13.8488 25.6788 12.6841 26.9359 10.5 29.1289C6.08479 28.7964 3.87406 28.0024 1 24.1289C5.03873 14.7208 11.1489 14.9084 13.5 8.12894C13.3462 2.88386 12.6296 0.736822 8 1.12894C6.53805 0.00379521 4.42119 6.24797 8 19.6289C11.5788 33.0099 8 34.1289 8 34.1289C8 34.1289 4.90589 35.1833 3.5 34.1289C2.45212 33.343 2 31.1289 2 31.1289L3.5 29.1289" stroke="black"/>
</svg>
